<svg width="140" height="47" viewBox="0 0 140 47" fill="none" xmlns="http://www.w3.org/2000/svg">
<path d="M8.98976 46.2903C8.62802 46.2903 8.27502 46.2857 7.91613 46.2776C7.17264 46.2679 6.43089 46.2032 5.69696 46.084C5.01261 45.9661 4.34966 45.7469 3.72997 45.4335C3.11597 45.1227 2.55595 44.7152 2.07136 44.2265C1.57976 43.7436 1.17049 43.1835 0.859746 42.5685C0.545583 41.9494 0.328164 41.2859 0.215061 40.601C0.0929206 39.865 0.0268374 39.1208 0.0173816 38.3748C0.00985434 38.1244 0 37.2907 0 37.2907V9.86425C0 9.86425 0.0104955 9.04337 0.017441 8.8022C0.0264949 8.05741 0.0921938 7.31438 0.213969 6.57956C0.32728 5.89275 0.544868 5.22728 0.8592 4.6062C1.1688 3.99157 1.5758 3.43108 2.06444 2.94646C2.55253 2.45724 3.11434 2.04761 3.72939 1.73252C4.34765 1.42013 5.00935 1.20243 5.69232 1.08672C6.42866 0.966292 7.17298 0.901182 7.91905 0.891938L8.99034 0.877441H131.004L132.088 0.89252C132.827 0.901305 133.565 0.965833 134.294 1.08556C134.984 1.20272 135.653 1.42194 136.278 1.736C137.51 2.371 138.513 3.37564 139.145 4.6091C139.455 5.22589 139.669 5.88593 139.781 6.5668C139.904 7.30766 139.973 8.05652 139.987 8.80742C139.991 9.14366 139.991 9.50482 139.991 9.86425C140 10.3095 140 10.7332 140 11.1605V36.0084C140 36.4397 140 36.8606 139.991 37.2849C139.991 37.671 139.991 38.0247 139.986 38.3887C139.972 39.1262 139.904 39.8617 139.783 40.5893C139.672 41.2792 139.456 41.9479 139.142 42.5721C138.829 43.1804 138.422 43.7356 137.936 44.2172C137.451 44.7085 136.89 45.1184 136.275 45.4312C135.651 45.747 134.984 45.9671 134.294 46.084C133.56 46.2038 132.819 46.2686 132.075 46.2776C131.727 46.2857 131.363 46.2903 131.01 46.2903L129.723 46.2927L8.98976 46.2903Z" fill="black"/>
<path d="M49.1876 32.0607H43.5678L42.2182 36.0457H39.8379L45.1609 21.3022H47.634L52.9569 36.0457H50.536L49.1876 32.0607ZM44.1498 30.2218H48.6045L46.4085 23.7545H46.347L44.1498 30.2218Z" fill="white"/>
<path d="M64.4527 30.6717C64.4527 34.0121 62.6648 36.1582 59.9668 36.1582C59.2834 36.194 58.6037 36.0365 58.0055 35.7039C57.4074 35.3713 56.915 34.877 56.5847 34.2776H56.5337V39.6017H54.3273V25.2966H56.463V27.0844H56.5036C56.849 26.4879 57.3497 25.9961 57.9524 25.6615C58.5551 25.3269 59.2372 25.1619 59.9262 25.1841C62.6543 25.1841 64.4527 27.3407 64.4527 30.6717ZM62.1848 30.6717C62.1848 28.4955 61.0602 27.0647 59.3442 27.0647C57.6584 27.0647 56.5244 28.5256 56.5244 30.6717C56.5244 32.8376 57.6584 34.288 59.3442 34.288C61.0602 34.288 62.1848 32.8677 62.1848 30.6717Z" fill="white"/>
<path d="M76.2841 30.6717C76.2841 34.0121 74.4963 36.1582 71.7982 36.1582C71.1148 36.1939 70.4351 36.0365 69.8369 35.7039C69.2388 35.3713 68.7464 34.877 68.4162 34.2776H68.3651V39.6017H66.1587V25.2966H68.2944V27.0844H68.3349C68.6804 26.4879 69.1811 25.9961 69.7838 25.6615C70.3865 25.3269 71.0686 25.1619 71.7576 25.1841C74.4858 25.1841 76.2841 27.3407 76.2841 30.6717ZM74.0162 30.6717C74.0162 28.4955 72.8916 27.0647 71.1756 27.0647C69.4898 27.0647 68.3559 28.5256 68.3559 30.6717C68.3559 32.8376 69.4898 34.288 71.1756 34.288C72.8916 34.288 74.0162 32.8677 74.0162 30.6717H74.0162Z" fill="white"/>
<path d="M84.1027 31.938C84.2662 33.4001 85.6866 34.3601 87.6274 34.3601C89.4872 34.3601 90.8252 33.4 90.8252 32.0818C90.8252 30.9374 90.0182 30.2522 88.1074 29.7826L86.1967 29.3223C83.4894 28.6684 82.2326 27.4023 82.2326 25.3477C82.2326 22.8039 84.4494 21.0566 87.5973 21.0566C90.7127 21.0566 92.8484 22.8039 92.9203 25.3477H90.693C90.5596 23.8764 89.3434 22.9883 87.566 22.9883C85.7885 22.9883 84.5723 23.8868 84.5723 25.1947C84.5723 26.237 85.3491 26.8504 87.2494 27.3199L88.8738 27.7187C91.8988 28.4341 93.1556 29.6492 93.1556 31.8058C93.1556 34.5641 90.9585 36.2916 87.4639 36.2916C84.1943 36.2916 81.9867 34.6046 81.8441 31.9379L84.1027 31.938Z" fill="white"/>
<path d="M97.9179 22.7524V25.2963H99.962V27.0435H97.9179V32.9694C97.9179 33.89 98.3272 34.319 99.2258 34.319C99.4685 34.3148 99.7107 34.2977 99.9516 34.2679V36.0048C99.5476 36.0803 99.137 36.1145 98.7261 36.1068C96.5498 36.1068 95.7011 35.2894 95.7011 33.2047V27.0435H94.1382V25.2963H95.7011V22.7524H97.9179Z" fill="white"/>
<path d="M101.145 30.6719C101.145 27.2898 103.137 25.1646 106.243 25.1646C109.36 25.1646 111.343 27.2898 111.343 30.6719C111.343 34.0632 109.37 36.1792 106.243 36.1792C103.118 36.1792 101.145 34.0632 101.145 30.6719ZM109.094 30.6719C109.094 28.3518 108.031 26.9826 106.243 26.9826C104.456 26.9826 103.394 28.3623 103.394 30.6719C103.394 33.0012 104.456 34.3601 106.243 34.3601C108.031 34.3601 109.094 33.0012 109.094 30.6719H109.094Z" fill="white"/>
<path d="M113.163 25.2965H115.267V27.1261H115.318C115.46 26.5546 115.795 26.0497 116.266 25.696C116.737 25.3423 117.315 25.1615 117.904 25.184C118.158 25.1831 118.411 25.2107 118.66 25.2663V27.3301C118.339 27.232 118.004 27.187 117.668 27.1968C117.348 27.1838 117.028 27.2403 116.731 27.3625C116.435 27.4846 116.168 27.6695 115.95 27.9045C115.731 28.1394 115.566 28.4188 115.466 28.7236C115.366 29.0283 115.333 29.3511 115.369 29.6699V36.0456H113.163L113.163 25.2965Z" fill="white"/>
<path d="M128.832 32.8887C128.535 34.8401 126.635 36.1792 124.203 36.1792C121.076 36.1792 119.135 34.0841 119.135 30.7229C119.135 27.3513 121.087 25.1646 124.111 25.1646C127.084 25.1646 128.955 27.2075 128.955 30.4667V31.2226H121.363V31.3559C121.328 31.7515 121.377 32.1501 121.508 32.5251C121.639 32.9 121.848 33.2429 122.121 33.5309C122.395 33.8188 122.726 34.0453 123.094 34.1953C123.462 34.3452 123.857 34.4152 124.254 34.4006C124.776 34.4495 125.299 34.3287 125.746 34.0563C126.193 33.7839 126.541 33.3744 126.737 32.8887L128.832 32.8887ZM121.373 29.6806H126.747C126.767 29.3249 126.713 28.9689 126.589 28.635C126.464 28.3012 126.272 27.9966 126.025 27.7404C125.777 27.4842 125.479 27.282 125.15 27.1464C124.821 27.0108 124.467 26.9448 124.111 26.9524C123.751 26.9503 123.395 27.0193 123.063 27.1555C122.73 27.2918 122.428 27.4925 122.173 27.7461C121.919 27.9998 121.717 28.3013 121.58 28.6333C121.442 28.9653 121.372 29.3213 121.373 29.6806V29.6806Z" fill="white"/>
<path d="M43.8725 10.2048C44.3351 10.1716 44.7992 10.2415 45.2315 10.4094C45.6638 10.5773 46.0535 10.8391 46.3723 11.1758C46.6912 11.5126 46.9314 11.9159 47.0755 12.3567C47.2197 12.7975 47.2642 13.2648 47.2059 13.7249C47.2059 15.9881 45.9827 17.289 43.8725 17.289H41.3136V10.2048H43.8725ZM42.4139 16.2872H43.7496C44.0801 16.3069 44.4109 16.2527 44.7179 16.1285C45.0248 16.0043 45.3002 15.8132 45.524 15.5692C45.7478 15.3251 45.9143 15.0342 46.0115 14.7177C46.1087 14.4011 46.1341 14.0669 46.0858 13.7393C46.1306 13.413 46.1026 13.0808 46.004 12.7666C45.9053 12.4524 45.7383 12.1639 45.515 11.9218C45.2918 11.6796 45.0177 11.4899 44.7125 11.3662C44.4072 11.2424 44.0784 11.1877 43.7496 11.2059H42.4139V16.2872Z" fill="white"/>
<path d="M48.4489 14.6128C48.4153 14.2614 48.4555 13.907 48.5669 13.5721C48.6783 13.2372 48.8585 12.9293 49.0959 12.6681C49.3333 12.4069 49.6226 12.1982 49.9454 12.0554C50.2682 11.9126 50.6172 11.8389 50.9701 11.8389C51.3231 11.8389 51.6721 11.9126 51.9949 12.0554C52.3176 12.1982 52.607 12.4069 52.8444 12.6681C53.0818 12.9293 53.2619 13.2372 53.3733 13.5721C53.4848 13.907 53.5249 14.2614 53.4913 14.6128C53.5256 14.9645 53.4859 15.3194 53.3748 15.6549C53.2636 15.9903 53.0836 16.2988 52.8461 16.5605C52.6087 16.8221 52.3191 17.0313 51.996 17.1744C51.6729 17.3175 51.3235 17.3914 50.9701 17.3914C50.6168 17.3914 50.2673 17.3175 49.9442 17.1744C49.6212 17.0313 49.3316 16.8221 49.0942 16.5605C48.8567 16.2988 48.6766 15.9903 48.5655 15.6549C48.4544 15.3194 48.4147 14.9645 48.4489 14.6128ZM52.4061 14.6128C52.4061 13.4539 51.8855 12.7762 50.9719 12.7762C50.0548 12.7762 49.5388 13.4539 49.5388 14.6128C49.5388 15.7809 50.0548 16.4534 50.9719 16.4534C51.8855 16.4534 52.4061 15.7763 52.4061 14.6128H52.4061Z" fill="white"/>
<path d="M60.1944 17.2881H59.0999L57.9949 13.3506H57.9115L56.8111 17.2881H55.7271L54.2534 11.9419H55.3236L56.2813 16.0213H56.3601L57.4593 11.9419H58.4715L59.5706 16.0213H59.6541L60.6071 11.9419H61.6622L60.1944 17.2881Z" fill="white"/>
<path d="M62.9009 11.9424H63.9165V12.7917H63.9954C64.1291 12.4867 64.3547 12.231 64.6407 12.0603C64.9267 11.8895 65.2588 11.8123 65.5908 11.8392C65.8509 11.8197 66.1121 11.8589 66.355 11.954C66.5979 12.0491 66.8163 12.1976 66.994 12.3886C67.1718 12.5796 67.3042 12.8081 67.3816 13.0572C67.4591 13.3063 67.4794 13.5696 67.4412 13.8277V17.2886H66.3862V14.0926C66.3862 13.2335 66.0128 12.8062 65.2325 12.8062C65.0559 12.798 64.8796 12.8281 64.7157 12.8943C64.5518 12.9606 64.4041 13.0616 64.2829 13.1903C64.1616 13.3189 64.0696 13.4723 64.0132 13.6399C63.9568 13.8074 63.9373 13.9852 63.956 14.161V17.2886H62.9009L62.9009 11.9424Z" fill="white"/>
<path d="M69.1226 9.85498H70.1776V17.2881H69.1226V9.85498Z" fill="white"/>
<path d="M71.6451 14.6129C71.6115 14.2615 71.6517 13.907 71.7631 13.5721C71.8746 13.2372 72.0548 12.9293 72.2922 12.6681C72.5296 12.4069 72.819 12.1982 73.1418 12.0554C73.4645 11.9126 73.8136 11.8389 74.1666 11.8389C74.5195 11.8389 74.8686 11.9126 75.1914 12.0554C75.5142 12.1982 75.8035 12.4069 76.0409 12.6681C76.2783 12.9293 76.4585 13.2372 76.57 13.5721C76.6814 13.907 76.7216 14.2615 76.6881 14.6129C76.7223 14.9646 76.6825 15.3195 76.5714 15.655C76.4602 15.9904 76.2801 16.2989 76.0426 16.5606C75.8052 16.8222 75.5156 17.0314 75.1925 17.1745C74.8694 17.3176 74.5199 17.3915 74.1666 17.3915C73.8132 17.3915 73.4637 17.3176 73.1406 17.1745C72.8175 17.0314 72.528 16.8222 72.2905 16.5606C72.053 16.2989 71.8729 15.9904 71.7618 15.655C71.6506 15.3195 71.6109 14.9646 71.6451 14.6129ZM75.6022 14.6129C75.6022 13.454 75.0816 12.7763 74.168 12.7763C73.2509 12.7763 72.735 13.454 72.735 14.6129C72.735 15.781 73.2509 16.4535 74.168 16.4535C75.0816 16.4535 75.6022 15.7764 75.6022 14.6129H75.6022Z" fill="white"/>
<path d="M77.7979 15.7763C77.7979 14.814 78.5144 14.2592 79.7863 14.1803L81.2344 14.0969V13.6354C81.2344 13.0708 80.8611 12.7519 80.1399 12.7519C79.5509 12.7519 79.1428 12.9682 79.0257 13.3461H78.0042C78.1121 12.4279 78.9758 11.8389 80.1886 11.8389C81.5289 11.8389 82.2849 12.5061 82.2849 13.6354V17.2882H81.2692V16.5369H81.1857C81.0163 16.8064 80.7784 17.0261 80.4962 17.1736C80.2141 17.3211 79.8979 17.391 79.5799 17.3763C79.3555 17.3997 79.1286 17.3757 78.914 17.306C78.6994 17.2363 78.5018 17.1224 78.3339 16.9717C78.166 16.8209 78.0315 16.6367 77.9392 16.4308C77.8469 16.2249 77.7987 16.002 77.7979 15.7763ZM81.2344 15.3195V14.8725L79.9289 14.956C79.1927 15.0053 78.8587 15.2557 78.8587 15.727C78.8587 16.2082 79.2761 16.4882 79.8501 16.4882C80.0183 16.5052 80.1881 16.4882 80.3496 16.4383C80.5111 16.3883 80.6609 16.3064 80.79 16.1973C80.9192 16.0883 81.0251 15.9544 81.1014 15.8036C81.1778 15.6528 81.223 15.4881 81.2344 15.3195Z" fill="white"/>
<path d="M83.6725 14.6128C83.6725 12.9235 84.5409 11.8533 85.8917 11.8533C86.2258 11.8379 86.5574 11.9179 86.8477 12.084C87.138 12.2501 87.375 12.4954 87.5311 12.7912H87.6099V9.85498H88.665V17.2881H87.654V16.4435H87.5705C87.4024 16.7373 87.1571 16.9796 86.8612 17.144C86.5652 17.3084 86.23 17.3887 85.8917 17.3762C84.5316 17.3763 83.6725 16.3061 83.6725 14.6128ZM84.7624 14.6128C84.7624 15.7467 85.2969 16.429 86.1908 16.429C87.0801 16.429 87.6297 15.7368 87.6297 14.6174C87.6297 13.5032 87.0743 12.8011 86.1908 12.8011C85.3027 12.8011 84.7624 13.4881 84.7624 14.6128H84.7624Z" fill="white"/>
<path d="M93.0295 14.6128C92.9959 14.2614 93.0361 13.907 93.1475 13.5721C93.2589 13.2372 93.4391 12.9293 93.6765 12.6681C93.9139 12.4069 94.2032 12.1982 94.526 12.0554C94.8487 11.9126 95.1978 11.8389 95.5507 11.8389C95.9036 11.8389 96.2527 11.9126 96.5754 12.0554C96.8982 12.1982 97.1875 12.4069 97.4249 12.6681C97.6623 12.9293 97.8425 13.2372 97.9539 13.5721C98.0653 13.907 98.1055 14.2614 98.0719 14.6128C98.1062 14.9645 98.0664 15.3194 97.9553 15.6549C97.8442 15.9903 97.6641 16.2988 97.4267 16.5605C97.1892 16.8221 96.8997 17.0313 96.5766 17.1744C96.2535 17.3175 95.9041 17.3914 95.5507 17.3914C95.1973 17.3914 94.8479 17.3175 94.5248 17.1744C94.2017 17.0313 93.9122 16.8221 93.6747 16.5605C93.4373 16.2988 93.2572 15.9903 93.1461 15.6549C93.035 15.3194 92.9953 14.9645 93.0295 14.6128ZM96.9867 14.6128C96.9867 13.4539 96.4661 12.7762 95.5524 12.7762C94.6353 12.7762 94.1194 13.4539 94.1194 14.6128C94.1194 15.7809 94.6354 16.4534 95.5524 16.4534C96.4661 16.4534 96.9867 15.7763 96.9867 14.6128Z" fill="white"/>
<path d="M99.4878 11.9424H100.503V12.7917H100.582C100.716 12.4867 100.942 12.231 101.228 12.0603C101.514 11.8895 101.846 11.8123 102.178 11.8392C102.438 11.8197 102.699 11.8589 102.942 11.954C103.185 12.0491 103.403 12.1976 103.581 12.3886C103.759 12.5796 103.891 12.8081 103.969 13.0572C104.046 13.3063 104.066 13.5696 104.028 13.8277V17.2886H102.973V14.0926C102.973 13.2335 102.6 12.8062 101.819 12.8062C101.643 12.798 101.467 12.8281 101.303 12.8943C101.139 12.9606 100.991 13.0616 100.87 13.1903C100.749 13.3189 100.657 13.4723 100.6 13.6399C100.544 13.8074 100.524 13.9852 100.543 14.161V17.2886H99.4878V11.9424Z" fill="white"/>
<path d="M109.99 10.6118V11.9672H111.148V12.8559H109.99V15.6049C109.99 16.165 110.221 16.4102 110.746 16.4102C110.88 16.4097 111.015 16.4016 111.148 16.3858V17.2647C110.959 17.2986 110.767 17.3166 110.574 17.3186C109.401 17.3186 108.934 16.9058 108.934 15.8751V12.8559H108.085V11.9672H108.934V10.6118H109.99Z" fill="white"/>
<path d="M112.59 9.85498H113.636V12.8011H113.719C113.859 12.4932 114.091 12.2361 114.383 12.0647C114.675 11.8933 115.012 11.8161 115.349 11.8434C115.608 11.8293 115.867 11.8725 116.107 11.97C116.347 12.0674 116.563 12.2166 116.739 12.4069C116.914 12.5973 117.046 12.8241 117.124 13.0712C117.202 13.3183 117.225 13.5796 117.19 13.8365V17.2882H116.134V14.0968C116.134 13.2429 115.737 12.8104 114.991 12.8104C114.81 12.7955 114.627 12.8204 114.457 12.8834C114.286 12.9464 114.131 13.0459 114.003 13.175C113.875 13.3041 113.776 13.4597 113.714 13.6308C113.653 13.802 113.629 13.9845 113.645 14.1658V17.2881H112.59L112.59 9.85498Z" fill="white"/>
<path d="M123.342 15.8448C123.198 16.3334 122.888 16.7561 122.464 17.0388C122.041 17.3216 121.531 17.4464 121.025 17.3915C120.673 17.4008 120.323 17.3333 119.999 17.1938C119.676 17.0543 119.387 16.846 119.152 16.5834C118.917 16.3209 118.742 16.0104 118.639 15.6734C118.536 15.3364 118.507 14.9811 118.556 14.632C118.509 14.2819 118.537 13.9258 118.64 13.5879C118.743 13.2499 118.917 12.9379 119.151 12.6731C119.384 12.4082 119.672 12.1967 119.995 12.0528C120.318 11.9089 120.667 11.8359 121.02 11.839C122.508 11.839 123.405 12.8553 123.405 14.534V14.9022H119.63V14.9613C119.614 15.1575 119.638 15.355 119.703 15.5411C119.767 15.7272 119.869 15.8978 120.003 16.042C120.138 16.1862 120.3 16.3008 120.481 16.3785C120.662 16.4561 120.857 16.4951 121.054 16.4929C121.306 16.5232 121.562 16.4778 121.789 16.3623C122.015 16.2469 122.202 16.0668 122.326 15.8448L123.342 15.8448ZM119.63 14.1219H122.331C122.344 13.9425 122.32 13.7622 122.259 13.5928C122.199 13.4233 122.103 13.2684 121.979 13.138C121.855 13.0076 121.706 12.9045 121.539 12.8354C121.373 12.7664 121.195 12.7328 121.015 12.7369C120.832 12.7347 120.651 12.7689 120.482 12.8377C120.313 12.9065 120.159 13.0084 120.03 13.1375C119.901 13.2666 119.8 13.4202 119.731 13.5892C119.662 13.7583 119.628 13.9394 119.63 14.1219H119.63Z" fill="white"/>
<path d="M28.3706 23.9404C28.3833 22.9495 28.6466 21.9778 29.1358 21.1159C29.6249 20.254 30.3242 19.5299 31.1684 19.0108C30.6321 18.2448 29.9246 17.6145 29.102 17.1698C28.2794 16.7251 27.3645 16.4783 26.4299 16.4491C24.4362 16.2398 22.5034 17.6421 21.4874 17.6421C20.4518 17.6421 18.8876 16.4699 17.2032 16.5045C16.1136 16.5397 15.0518 16.8565 14.1211 17.4241C13.1905 17.9917 12.4227 18.7907 11.8926 19.7432C9.59645 23.7187 11.3092 29.5613 13.5087 32.7747C14.6092 34.3483 15.8953 36.106 17.5782 36.0436C19.225 35.9753 19.8401 34.9935 21.8279 34.9935C23.7973 34.9935 24.3744 36.0436 26.0914 36.004C27.8585 35.9753 28.9719 34.4235 30.0337 32.835C30.8244 31.7138 31.4328 30.4747 31.8365 29.1634C30.8099 28.7292 29.9337 28.0024 29.3174 27.0736C28.7011 26.1448 28.3718 25.0551 28.3706 23.9404Z" fill="white"/>
<path d="M25.1274 14.3357C26.0909 13.1791 26.5656 11.6924 26.4506 10.1914C24.9786 10.346 23.6189 11.0495 22.6424 12.1618C22.1649 12.7052 21.7993 13.3373 21.5663 14.0221C21.3333 14.7069 21.2375 15.4309 21.2845 16.1527C22.0208 16.1602 22.7492 16.0007 23.4148 15.6859C24.0805 15.3712 24.666 14.9095 25.1274 14.3357Z" fill="white"/>
</svg>
