<svg width="148" height="108" viewBox="0 0 148 108" fill="none" xmlns="http://www.w3.org/2000/svg">
<path d="M12.9898 46.2903C12.628 46.2903 12.275 46.2857 11.9161 46.2776C11.1726 46.2679 10.4309 46.2032 9.69696 46.084C9.01261 45.9661 8.34966 45.7469 7.72997 45.4335C7.11597 45.1227 6.55595 44.7152 6.07136 44.2265C5.57976 43.7436 5.17049 43.1835 4.85975 42.5685C4.54558 41.9494 4.32816 41.2859 4.21506 40.601C4.09292 39.865 4.02684 39.1208 4.01738 38.3748C4.00985 38.1244 4 37.2907 4 37.2907V9.86425C4 9.86425 4.0105 9.04337 4.01744 8.8022C4.02649 8.05741 4.09219 7.31438 4.21397 6.57956C4.32728 5.89275 4.54487 5.22728 4.8592 4.6062C5.1688 3.99157 5.5758 3.43108 6.06444 2.94646C6.55253 2.45724 7.11434 2.04761 7.72939 1.73252C8.34765 1.42013 9.00935 1.20243 9.69232 1.08672C10.4287 0.966292 11.173 0.901182 11.919 0.891938L12.9903 0.877441H135.004L136.088 0.89252C136.827 0.901305 137.565 0.965833 138.294 1.08556C138.984 1.20272 139.653 1.42194 140.278 1.736C141.51 2.371 142.513 3.37564 143.145 4.6091C143.455 5.22589 143.669 5.88593 143.781 6.5668C143.904 7.30766 143.973 8.05652 143.987 8.80742C143.991 9.14366 143.991 9.50482 143.991 9.86425C144 10.3095 144 10.7332 144 11.1605V36.0084C144 36.4397 144 36.8606 143.991 37.2849C143.991 37.671 143.991 38.0247 143.986 38.3887C143.972 39.1262 143.904 39.8617 143.783 40.5893C143.672 41.2792 143.456 41.9479 143.142 42.5721C142.829 43.1804 142.422 43.7356 141.936 44.2172C141.451 44.7085 140.89 45.1184 140.275 45.4312C139.651 45.747 138.984 45.9671 138.294 46.084C137.56 46.2038 136.819 46.2686 136.075 46.2776C135.727 46.2857 135.363 46.2903 135.01 46.2903L133.723 46.2927L12.9898 46.2903Z" fill="black"/>
<path d="M53.1876 32.0607H47.5678L46.2182 36.0457H43.8379L49.1609 21.3022H51.634L56.9569 36.0457H54.536L53.1876 32.0607ZM48.1498 30.2218H52.6045L50.4085 23.7545H50.347L48.1498 30.2218Z" fill="white"/>
<path d="M68.4527 30.6717C68.4527 34.0121 66.6648 36.1582 63.9668 36.1582C63.2834 36.194 62.6037 36.0365 62.0055 35.7039C61.4074 35.3713 60.915 34.877 60.5847 34.2776H60.5337V39.6017H58.3273V25.2966H60.463V27.0844H60.5036C60.849 26.4879 61.3497 25.9961 61.9524 25.6615C62.5551 25.3269 63.2372 25.1619 63.9262 25.1841C66.6543 25.1841 68.4527 27.3407 68.4527 30.6717ZM66.1848 30.6717C66.1848 28.4955 65.0602 27.0647 63.3442 27.0647C61.6584 27.0647 60.5244 28.5256 60.5244 30.6717C60.5244 32.8376 61.6584 34.288 63.3442 34.288C65.0602 34.288 66.1848 32.8677 66.1848 30.6717Z" fill="white"/>
<path d="M80.2841 30.6717C80.2841 34.0121 78.4963 36.1582 75.7982 36.1582C75.1148 36.1939 74.4351 36.0365 73.8369 35.7039C73.2388 35.3713 72.7464 34.877 72.4162 34.2776H72.3651V39.6017H70.1587V25.2966H72.2944V27.0844H72.3349C72.6804 26.4879 73.1811 25.9961 73.7838 25.6615C74.3865 25.3269 75.0686 25.1619 75.7576 25.1841C78.4858 25.1841 80.2841 27.3407 80.2841 30.6717ZM78.0162 30.6717C78.0162 28.4955 76.8916 27.0647 75.1756 27.0647C73.4898 27.0647 72.3559 28.5256 72.3559 30.6717C72.3559 32.8376 73.4898 34.288 75.1756 34.288C76.8916 34.288 78.0162 32.8677 78.0162 30.6717H78.0162Z" fill="white"/>
<path d="M88.1027 31.938C88.2662 33.4001 89.6866 34.3601 91.6274 34.3601C93.4872 34.3601 94.8252 33.4 94.8252 32.0818C94.8252 30.9374 94.0182 30.2522 92.1074 29.7826L90.1967 29.3223C87.4894 28.6684 86.2326 27.4023 86.2326 25.3477C86.2326 22.8039 88.4494 21.0566 91.5973 21.0566C94.7127 21.0566 96.8484 22.8039 96.9203 25.3477H94.693C94.5596 23.8764 93.3434 22.9883 91.566 22.9883C89.7885 22.9883 88.5723 23.8868 88.5723 25.1947C88.5723 26.237 89.3491 26.8504 91.2494 27.3199L92.8738 27.7187C95.8988 28.4341 97.1556 29.6492 97.1556 31.8058C97.1556 34.5641 94.9585 36.2916 91.4639 36.2916C88.1943 36.2916 85.9867 34.6046 85.8441 31.9379L88.1027 31.938Z" fill="white"/>
<path d="M101.918 22.7524V25.2963H103.962V27.0435H101.918V32.9694C101.918 33.89 102.327 34.319 103.226 34.319C103.468 34.3148 103.711 34.2977 103.952 34.2679V36.0048C103.548 36.0803 103.137 36.1145 102.726 36.1068C100.55 36.1068 99.7011 35.2894 99.7011 33.2047V27.0435H98.1382V25.2963H99.7011V22.7524H101.918Z" fill="white"/>
<path d="M105.145 30.6719C105.145 27.2898 107.137 25.1646 110.243 25.1646C113.36 25.1646 115.343 27.2898 115.343 30.6719C115.343 34.0632 113.37 36.1792 110.243 36.1792C107.118 36.1792 105.145 34.0632 105.145 30.6719ZM113.094 30.6719C113.094 28.3518 112.031 26.9826 110.243 26.9826C108.456 26.9826 107.394 28.3623 107.394 30.6719C107.394 33.0012 108.456 34.3601 110.243 34.3601C112.031 34.3601 113.094 33.0012 113.094 30.6719H113.094Z" fill="white"/>
<path d="M117.163 25.2965H119.267V27.1261H119.318C119.46 26.5546 119.795 26.0497 120.266 25.696C120.737 25.3423 121.315 25.1615 121.904 25.184C122.158 25.1831 122.411 25.2107 122.66 25.2663V27.3301C122.339 27.232 122.004 27.187 121.668 27.1968C121.348 27.1838 121.028 27.2403 120.731 27.3625C120.435 27.4846 120.168 27.6695 119.95 27.9045C119.731 28.1394 119.566 28.4188 119.466 28.7236C119.366 29.0283 119.333 29.3511 119.369 29.6699V36.0456H117.163L117.163 25.2965Z" fill="white"/>
<path d="M132.832 32.8887C132.535 34.8401 130.635 36.1792 128.203 36.1792C125.076 36.1792 123.135 34.0841 123.135 30.7229C123.135 27.3513 125.087 25.1646 128.111 25.1646C131.084 25.1646 132.955 27.2075 132.955 30.4667V31.2226H125.363V31.3559C125.328 31.7515 125.377 32.1501 125.508 32.5251C125.639 32.9 125.848 33.2429 126.121 33.5309C126.395 33.8188 126.726 34.0453 127.094 34.1953C127.462 34.3452 127.857 34.4152 128.254 34.4006C128.776 34.4495 129.299 34.3287 129.746 34.0563C130.193 33.7839 130.541 33.3744 130.737 32.8887L132.832 32.8887ZM125.373 29.6806H130.747C130.767 29.3249 130.713 28.9689 130.589 28.635C130.464 28.3012 130.272 27.9966 130.025 27.7404C129.777 27.4842 129.479 27.282 129.15 27.1464C128.821 27.0108 128.467 26.9448 128.111 26.9524C127.751 26.9503 127.395 27.0193 127.063 27.1555C126.73 27.2918 126.428 27.4925 126.173 27.7461C125.919 27.9998 125.717 28.3013 125.58 28.6333C125.442 28.9653 125.372 29.3213 125.373 29.6806V29.6806Z" fill="white"/>
<path d="M47.8725 10.2048C48.3351 10.1716 48.7992 10.2415 49.2315 10.4094C49.6638 10.5773 50.0535 10.8391 50.3723 11.1758C50.6912 11.5126 50.9314 11.9159 51.0755 12.3567C51.2197 12.7975 51.2642 13.2648 51.2059 13.7249C51.2059 15.9881 49.9827 17.289 47.8725 17.289H45.3136V10.2048H47.8725ZM46.4139 16.2872H47.7496C48.0801 16.3069 48.4109 16.2527 48.7179 16.1285C49.0248 16.0043 49.3002 15.8132 49.524 15.5692C49.7478 15.3251 49.9143 15.0342 50.0115 14.7177C50.1087 14.4011 50.1341 14.0669 50.0858 13.7393C50.1306 13.413 50.1026 13.0808 50.004 12.7666C49.9053 12.4524 49.7383 12.1639 49.515 11.9218C49.2918 11.6796 49.0177 11.4899 48.7125 11.3661C48.4072 11.2424 48.0784 11.1877 47.7496 11.2059H46.4139V16.2872Z" fill="white"/>
<path d="M52.4489 14.6128C52.4153 14.2614 52.4555 13.907 52.5669 13.5721C52.6783 13.2372 52.8585 12.9293 53.0959 12.6681C53.3333 12.4069 53.6226 12.1982 53.9454 12.0554C54.2682 11.9126 54.6172 11.8389 54.9701 11.8389C55.3231 11.8389 55.6721 11.9126 55.9949 12.0554C56.3176 12.1982 56.607 12.4069 56.8444 12.6681C57.0818 12.9293 57.2619 13.2372 57.3733 13.5721C57.4848 13.907 57.5249 14.2614 57.4913 14.6128C57.5256 14.9645 57.4859 15.3194 57.3748 15.6549C57.2636 15.9903 57.0836 16.2988 56.8461 16.5605C56.6087 16.8221 56.3191 17.0313 55.996 17.1744C55.6729 17.3175 55.3235 17.3914 54.9701 17.3914C54.6168 17.3914 54.2673 17.3175 53.9442 17.1744C53.6212 17.0313 53.3316 16.8221 53.0942 16.5605C52.8567 16.2988 52.6766 15.9903 52.5655 15.6549C52.4544 15.3194 52.4147 14.9645 52.4489 14.6128V14.6128ZM56.4061 14.6128C56.4061 13.4539 55.8855 12.7762 54.9719 12.7762C54.0548 12.7762 53.5388 13.4539 53.5388 14.6128C53.5388 15.7809 54.0548 16.4534 54.9719 16.4534C55.8855 16.4534 56.4061 15.7763 56.4061 14.6128H56.4061Z" fill="white"/>
<path d="M64.1944 17.2881H63.0999L61.9949 13.3506H61.9115L60.8111 17.2881H59.7271L58.2534 11.9419H59.3236L60.2813 16.0213H60.3601L61.4593 11.9419H62.4715L63.5706 16.0213H63.6541L64.6071 11.9419H65.6622L64.1944 17.2881Z" fill="white"/>
<path d="M66.9009 11.9424H67.9165V12.7917H67.9954C68.1291 12.4867 68.3547 12.231 68.6407 12.0603C68.9267 11.8895 69.2588 11.8123 69.5908 11.8392C69.8509 11.8197 70.1121 11.8589 70.355 11.954C70.5979 12.0491 70.8163 12.1976 70.994 12.3886C71.1718 12.5796 71.3042 12.8081 71.3816 13.0572C71.4591 13.3063 71.4794 13.5696 71.4412 13.8277V17.2886H70.3862V14.0926C70.3862 13.2335 70.0128 12.8062 69.2325 12.8062C69.0559 12.798 68.8796 12.8281 68.7157 12.8943C68.5518 12.9606 68.4041 13.0616 68.2829 13.1903C68.1616 13.3189 68.0696 13.4723 68.0132 13.6399C67.9568 13.8074 67.9373 13.9852 67.956 14.161V17.2886H66.9009L66.9009 11.9424Z" fill="white"/>
<path d="M73.1226 9.85498H74.1776V17.2881H73.1226V9.85498Z" fill="white"/>
<path d="M75.6451 14.6129C75.6115 14.2615 75.6517 13.907 75.7631 13.5721C75.8746 13.2372 76.0548 12.9293 76.2922 12.6681C76.5296 12.4069 76.819 12.1982 77.1418 12.0554C77.4645 11.9126 77.8136 11.8389 78.1666 11.8389C78.5195 11.8389 78.8686 11.9126 79.1914 12.0554C79.5142 12.1982 79.8035 12.4069 80.0409 12.6681C80.2783 12.9293 80.4585 13.2372 80.57 13.5721C80.6814 13.907 80.7216 14.2615 80.6881 14.6129C80.7223 14.9646 80.6825 15.3195 80.5714 15.655C80.4602 15.9904 80.2801 16.2989 80.0426 16.5606C79.8052 16.8222 79.5156 17.0314 79.1925 17.1745C78.8694 17.3176 78.5199 17.3915 78.1666 17.3915C77.8132 17.3915 77.4637 17.3176 77.1406 17.1745C76.8175 17.0314 76.528 16.8222 76.2905 16.5606C76.053 16.2989 75.8729 15.9904 75.7618 15.655C75.6506 15.3195 75.6109 14.9646 75.6451 14.6129V14.6129ZM79.6022 14.6129C79.6022 13.454 79.0816 12.7763 78.168 12.7763C77.2509 12.7763 76.735 13.454 76.735 14.6129C76.735 15.781 77.2509 16.4535 78.168 16.4535C79.0816 16.4535 79.6022 15.7764 79.6022 14.6129H79.6022Z" fill="white"/>
<path d="M81.7979 15.7763C81.7979 14.814 82.5144 14.2592 83.7863 14.1803L85.2344 14.0969V13.6354C85.2344 13.0708 84.8611 12.7519 84.1399 12.7519C83.5509 12.7519 83.1428 12.9682 83.0257 13.3461H82.0042C82.1121 12.4279 82.9758 11.8389 84.1886 11.8389C85.5289 11.8389 86.2849 12.5061 86.2849 13.6354V17.2882H85.2692V16.5369H85.1857C85.0163 16.8064 84.7784 17.0261 84.4962 17.1736C84.2141 17.3211 83.8979 17.391 83.5799 17.3763C83.3555 17.3997 83.1286 17.3757 82.914 17.306C82.6994 17.2363 82.5018 17.1224 82.3339 16.9717C82.166 16.8209 82.0315 16.6367 81.9392 16.4308C81.8469 16.2249 81.7987 16.002 81.7979 15.7763V15.7763ZM85.2344 15.3195V14.8725L83.9289 14.956C83.1927 15.0053 82.8587 15.2557 82.8587 15.727C82.8587 16.2082 83.2761 16.4882 83.8501 16.4882C84.0183 16.5052 84.1881 16.4882 84.3496 16.4383C84.5111 16.3883 84.6609 16.3064 84.79 16.1973C84.9192 16.0883 85.0251 15.9544 85.1014 15.8036C85.1778 15.6528 85.223 15.4881 85.2344 15.3195V15.3195Z" fill="white"/>
<path d="M87.6725 14.6128C87.6725 12.9235 88.5409 11.8533 89.8917 11.8533C90.2258 11.8379 90.5574 11.9179 90.8477 12.084C91.138 12.2501 91.375 12.4954 91.5311 12.7912H91.6099V9.85498H92.665V17.2881H91.654V16.4435H91.5705C91.4024 16.7373 91.1571 16.9796 90.8612 17.144C90.5652 17.3084 90.23 17.3887 89.8917 17.3762C88.5316 17.3763 87.6725 16.3061 87.6725 14.6128ZM88.7624 14.6128C88.7624 15.7467 89.2969 16.429 90.1908 16.429C91.0801 16.429 91.6297 15.7368 91.6297 14.6174C91.6297 13.5032 91.0743 12.8011 90.1908 12.8011C89.3027 12.8011 88.7624 13.4881 88.7624 14.6128H88.7624Z" fill="white"/>
<path d="M97.0295 14.6128C96.9959 14.2614 97.0361 13.907 97.1475 13.5721C97.2589 13.2372 97.4391 12.9293 97.6765 12.6681C97.9139 12.4069 98.2032 12.1982 98.526 12.0554C98.8487 11.9126 99.1978 11.8389 99.5507 11.8389C99.9036 11.8389 100.253 11.9126 100.575 12.0554C100.898 12.1982 101.188 12.4069 101.425 12.6681C101.662 12.9293 101.842 13.2372 101.954 13.5721C102.065 13.907 102.106 14.2614 102.072 14.6128C102.106 14.9645 102.066 15.3194 101.955 15.6549C101.844 15.9903 101.664 16.2988 101.427 16.5605C101.189 16.8221 100.9 17.0313 100.577 17.1744C100.254 17.3175 99.9041 17.3914 99.5507 17.3914C99.1973 17.3914 98.8479 17.3175 98.5248 17.1744C98.2017 17.0313 97.9122 16.8221 97.6747 16.5605C97.4373 16.2988 97.2572 15.9903 97.1461 15.6549C97.035 15.3194 96.9953 14.9645 97.0295 14.6128V14.6128ZM100.987 14.6128C100.987 13.4539 100.466 12.7762 99.5524 12.7762C98.6353 12.7762 98.1194 13.4539 98.1194 14.6128C98.1194 15.7809 98.6354 16.4534 99.5524 16.4534C100.466 16.4534 100.987 15.7763 100.987 14.6128Z" fill="white"/>
<path d="M103.488 11.9424H104.503V12.7917H104.582C104.716 12.4867 104.942 12.231 105.228 12.0603C105.514 11.8895 105.846 11.8123 106.178 11.8392C106.438 11.8197 106.699 11.8589 106.942 11.954C107.185 12.0491 107.403 12.1976 107.581 12.3886C107.759 12.5796 107.891 12.8081 107.969 13.0572C108.046 13.3063 108.066 13.5696 108.028 13.8277V17.2886H106.973V14.0926C106.973 13.2335 106.6 12.8062 105.819 12.8062C105.643 12.798 105.467 12.8281 105.303 12.8943C105.139 12.9606 104.991 13.0616 104.87 13.1903C104.749 13.3189 104.657 13.4723 104.6 13.6399C104.544 13.8074 104.524 13.9852 104.543 14.161V17.2886H103.488V11.9424Z" fill="white"/>
<path d="M113.99 10.6118V11.9672H115.148V12.8559H113.99V15.6049C113.99 16.165 114.221 16.4102 114.746 16.4102C114.88 16.4097 115.015 16.4016 115.148 16.3858V17.2647C114.959 17.2986 114.767 17.3166 114.574 17.3186C113.401 17.3186 112.934 16.9058 112.934 15.8751V12.8559H112.085V11.9672H112.934V10.6118H113.99Z" fill="white"/>
<path d="M116.59 9.85498H117.636V12.8011H117.719C117.859 12.4932 118.091 12.2361 118.383 12.0647C118.675 11.8933 119.012 11.8161 119.349 11.8434C119.608 11.8293 119.867 11.8725 120.107 11.97C120.347 12.0674 120.563 12.2166 120.739 12.4069C120.914 12.5973 121.046 12.8241 121.124 13.0712C121.202 13.3183 121.225 13.5796 121.19 13.8365V17.2882H120.134V14.0968C120.134 13.2429 119.737 12.8104 118.991 12.8104C118.81 12.7955 118.627 12.8204 118.457 12.8834C118.286 12.9464 118.131 13.0459 118.003 13.175C117.875 13.3041 117.776 13.4597 117.714 13.6308C117.653 13.802 117.629 13.9845 117.645 14.1658V17.2881H116.59L116.59 9.85498Z" fill="white"/>
<path d="M127.342 15.8448C127.198 16.3334 126.888 16.7561 126.464 17.0388C126.041 17.3216 125.531 17.4464 125.025 17.3915C124.673 17.4008 124.323 17.3333 123.999 17.1938C123.676 17.0543 123.387 16.846 123.152 16.5834C122.917 16.3209 122.742 16.0104 122.639 15.6734C122.536 15.3364 122.507 14.9811 122.556 14.632C122.509 14.2819 122.537 13.9258 122.64 13.5879C122.743 13.2499 122.917 12.9379 123.151 12.6731C123.384 12.4082 123.672 12.1967 123.995 12.0528C124.318 11.9089 124.667 11.8359 125.02 11.839C126.508 11.839 127.405 12.8553 127.405 14.534V14.9022H123.63V14.9613C123.614 15.1575 123.638 15.355 123.703 15.5411C123.767 15.7272 123.869 15.8978 124.003 16.042C124.138 16.1862 124.3 16.3008 124.481 16.3785C124.662 16.4561 124.857 16.4951 125.054 16.4929C125.306 16.5232 125.562 16.4778 125.789 16.3623C126.015 16.2469 126.202 16.0668 126.326 15.8448L127.342 15.8448ZM123.63 14.1219H126.331C126.344 13.9425 126.32 13.7622 126.259 13.5928C126.199 13.4233 126.103 13.2684 125.979 13.138C125.855 13.0076 125.706 12.9045 125.539 12.8354C125.373 12.7664 125.195 12.7328 125.015 12.7369C124.832 12.7347 124.651 12.7689 124.482 12.8377C124.313 12.9065 124.159 13.0084 124.03 13.1375C123.901 13.2666 123.8 13.4202 123.731 13.5892C123.662 13.7583 123.628 13.9394 123.63 14.1219H123.63Z" fill="white"/>
<path d="M32.3706 23.9404C32.3833 22.9495 32.6466 21.9778 33.1358 21.1159C33.6249 20.254 34.3242 19.5299 35.1684 19.0108C34.6321 18.2448 33.9246 17.6145 33.102 17.1698C32.2794 16.7251 31.3645 16.4783 30.4299 16.4491C28.4362 16.2398 26.5034 17.6421 25.4874 17.6421C24.4518 17.6421 22.8876 16.4699 21.2032 16.5045C20.1136 16.5397 19.0518 16.8565 18.1211 17.4241C17.1905 17.9917 16.4227 18.7907 15.8926 19.7432C13.5965 23.7187 15.3092 29.5613 17.5087 32.7747C18.6092 34.3483 19.8953 36.106 21.5782 36.0436C23.225 35.9753 23.8401 34.9935 25.8279 34.9935C27.7973 34.9935 28.3744 36.0436 30.0914 36.004C31.8585 35.9753 32.9719 34.4235 34.0337 32.835C34.8244 31.7138 35.4328 30.4747 35.8365 29.1634C34.8099 28.7292 33.9337 28.0024 33.3174 27.0736C32.7011 26.1448 32.3718 25.0551 32.3706 23.9404V23.9404Z" fill="white"/>
<path d="M29.1274 14.3357C30.0909 13.1791 30.5656 11.6924 30.4506 10.1914C28.9786 10.346 27.6189 11.0495 26.6424 12.1618C26.1649 12.7052 25.7993 13.3373 25.5663 14.0221C25.3333 14.7069 25.2375 15.4309 25.2845 16.1527C26.0208 16.1602 26.7492 16.0007 27.4148 15.6859C28.0805 15.3712 28.666 14.9095 29.1274 14.3357Z" fill="white"/>
<g filter="url(#filter0_d_1_77)">
<path d="M12.9898 99.9412C12.628 99.9412 12.275 99.9366 11.9161 99.9285C11.1726 99.9188 10.4309 99.8541 9.69696 99.7349C9.01261 99.617 8.34966 99.3978 7.72997 99.0844C7.11597 98.7736 6.55595 98.366 6.07136 97.8774C5.57976 97.3945 5.17049 96.8344 4.85975 96.2194C4.54558 95.6003 4.32816 94.9368 4.21506 94.2518C4.09292 93.5159 4.02684 92.7717 4.01738 92.0257C4.00985 91.7753 4 90.9416 4 90.9416V63.5151C4 63.5151 4.0105 62.6942 4.01744 62.4531C4.02649 61.7083 4.09219 60.9653 4.21397 60.2304C4.32728 59.5436 4.54487 58.8782 4.8592 58.2571C5.1688 57.6424 5.5758 57.082 6.06444 56.5973C6.55253 56.1081 7.11434 55.6985 7.72939 55.3834C8.34765 55.071 9.00935 54.8533 9.69232 54.7376C10.4287 54.6172 11.173 54.5521 11.919 54.5428L12.9903 54.5283H135.004L136.088 54.5434C136.827 54.5522 137.565 54.6167 138.294 54.7364C138.984 54.8536 139.653 55.0728 140.278 55.3869C141.51 56.0219 142.513 57.0265 143.145 58.26C143.455 58.8768 143.669 59.5368 143.781 60.2177C143.904 60.9585 143.973 61.7074 143.987 62.4583C143.991 62.7945 143.991 63.1557 143.991 63.5151C144 63.9604 144 64.3841 144 64.8114V89.6593C144 90.0906 144 90.5115 143.991 90.9358C143.991 91.3219 143.991 91.6756 143.986 92.0396C143.972 92.7771 143.904 93.5126 143.783 94.2402C143.672 94.9301 143.456 95.5988 143.142 96.2229C142.829 96.8313 142.422 97.3865 141.936 97.8681C141.451 98.3594 140.89 98.7693 140.275 99.0821C139.651 99.3979 138.984 99.618 138.294 99.7349C137.56 99.8547 136.819 99.9195 136.075 99.9285C135.727 99.9366 135.363 99.9412 135.01 99.9412L133.723 99.9436L12.9898 99.9412Z" fill="black"/>
<path d="M74.3939 78.9419C71.9191 78.9419 69.902 80.8233 69.902 83.417C69.902 85.9939 71.9191 87.8921 74.3939 87.8921C76.8687 87.8921 78.8858 85.9939 78.8858 83.417C78.8858 80.8233 76.8687 78.9419 74.3939 78.9419ZM74.3939 86.1296C73.0376 86.1296 71.8675 85.0111 71.8675 83.417C71.8675 81.806 73.0376 80.7044 74.3939 80.7044C75.7502 80.7044 76.9192 81.806 76.9192 83.417C76.9192 85.01 75.7502 86.1296 74.3939 86.1296ZM64.5936 78.9419C62.1187 78.9419 60.1016 80.8233 60.1016 83.417C60.1016 85.9939 62.1187 87.8921 64.5936 87.8921C67.0684 87.8921 69.0855 85.9939 69.0855 83.417C69.0865 80.8233 67.0684 78.9419 64.5936 78.9419ZM64.5936 86.1296C63.2373 86.1296 62.0682 85.0111 62.0682 83.417C62.0682 81.806 63.2383 80.7044 64.5936 80.7044C65.9499 80.7044 67.1189 81.806 67.1189 83.417C67.1199 85.01 65.9499 86.1296 64.5936 86.1296ZM52.9371 80.315V82.2132H57.4806C57.3448 83.2812 56.9892 84.0609 56.4462 84.6039C55.7854 85.2647 54.7511 85.9939 52.9371 85.9939C50.1403 85.9939 47.9538 83.739 47.9538 80.9422C47.9538 78.1454 50.1403 75.8905 52.9371 75.8905C54.446 75.8905 55.5476 76.4839 56.361 77.2468L57.7005 75.9073C56.5651 74.8225 55.0563 73.9912 52.9371 73.9912C49.106 73.9912 45.8851 77.11 45.8851 80.9411C45.8851 84.7722 49.106 87.891 52.9371 87.891C55.0047 87.891 56.5651 87.2134 57.7857 85.9412C59.04 84.687 59.4303 82.9235 59.4303 81.4998C59.4303 81.059 59.3967 80.6517 59.3283 80.3129H52.9371V80.315ZM100.611 81.7892C100.238 80.7885 99.1021 78.9408 96.7798 78.9408C94.4744 78.9408 92.5594 80.7549 92.5594 83.4159C92.5594 85.9244 94.4576 87.891 97.0008 87.891C99.0516 87.891 100.238 86.6368 100.73 85.9076L99.2042 84.8901C98.6959 85.6361 98.0004 86.1275 97.0008 86.1275C96.0002 86.1275 95.2889 85.6698 94.8311 84.7712L100.815 82.2964L100.611 81.7892ZM94.5081 83.2812C94.4576 81.5524 95.8476 80.6707 96.8472 80.6707C97.6269 80.6707 98.2877 81.06 98.5086 81.6198L94.5081 83.2812ZM89.6427 87.6206H91.6092V74.4668H89.6427V87.6206ZM86.4218 79.9415H86.3545C85.9136 79.4164 85.0666 78.9408 83.9986 78.9408C81.7605 78.9408 79.7097 80.9074 79.7097 83.4328C79.7097 85.9412 81.7605 87.891 83.9986 87.891C85.0666 87.891 85.9136 87.4165 86.3545 86.8735H86.4218V87.5175C86.4218 89.2294 85.5064 90.1449 84.0312 90.1449C82.8274 90.1449 82.0814 89.2799 81.7763 88.5518L80.0643 89.2641C80.5557 90.4511 81.8615 91.9084 84.0312 91.9084C86.3366 91.9084 88.2863 90.5521 88.2863 87.247V79.2123H86.4218V79.9415V79.9415ZM84.168 86.1296C82.8117 86.1296 81.6763 84.9942 81.6763 83.4338C81.6763 81.8576 82.8117 80.7044 84.168 80.7044C85.5074 80.7044 86.5576 81.8565 86.5576 83.4338C86.5576 84.9932 85.5074 86.1296 84.168 86.1296ZM109.822 74.4668H105.118V87.6206H107.08V82.6373H109.821C111.997 82.6373 114.136 81.0621 114.136 78.5526C114.136 76.043 111.998 74.4668 109.822 74.4668ZM109.873 80.8064H107.08V76.2977H109.873C111.34 76.2977 112.174 77.513 112.174 78.5526C112.174 79.5711 111.34 80.8064 109.873 80.8064ZM122.007 78.9177C120.585 78.9177 119.113 79.5438 118.504 80.9316L120.247 81.6598C120.62 80.9316 121.313 80.6949 122.041 80.6949C123.057 80.6949 124.089 81.3041 124.106 82.3869V82.5226C123.75 82.3195 122.988 82.0144 122.058 82.0144C120.18 82.0144 118.267 83.0466 118.267 84.9764C118.267 86.7367 119.808 87.87 121.533 87.87C122.854 87.87 123.581 87.2776 124.038 86.5841H124.105V87.5995H126V82.5563C126 80.2203 124.257 78.9177 122.007 78.9177ZM121.769 86.1264C121.126 86.1264 120.229 85.8045 120.229 85.01C120.229 83.9946 121.346 83.6053 122.31 83.6053C123.173 83.6053 123.579 83.7916 124.104 84.0451C123.952 85.2636 122.903 86.1264 121.769 86.1264ZM132.905 79.2049L130.654 84.908H130.587L128.252 79.2049H126.137L129.64 87.1755L127.642 91.6095H129.69L135.089 79.2049H132.905V79.2049ZM115.22 87.6206H117.183V74.4668H115.22V87.6206Z" fill="white"/>
<path fill-rule="evenodd" clip-rule="evenodd" d="M80.1528 68.9163C79.532 69.555 78.7607 69.8728 77.8379 69.8728C76.9151 69.8728 76.1439 69.554 75.5241 68.9163C74.9033 68.2787 74.5939 67.4979 74.5939 66.5751C74.5939 65.6523 74.9033 64.8716 75.5241 64.2339C76.1439 63.5953 76.9151 63.2764 77.8379 63.2764C78.7555 63.2764 79.5257 63.5974 80.1486 64.2382C80.7715 64.879 81.083 65.6576 81.083 66.5751C81.083 67.499 80.7726 68.2797 80.1528 68.9163ZM76.1228 68.3881C76.59 68.8616 77.1614 69.0973 77.8379 69.0973C78.5145 69.0973 79.0859 68.8605 79.553 68.3881C80.0202 67.9146 80.2549 67.3106 80.2549 66.5762C80.2549 65.8417 80.0202 65.2367 79.553 64.7643C79.0869 64.2908 78.5145 64.0551 77.8379 64.0551C77.1614 64.0551 76.59 64.2918 76.1228 64.7643C75.6567 65.2378 75.422 65.8417 75.422 66.5762C75.422 67.3106 75.6567 67.9146 76.1228 68.3881Z" fill="white"/>
<path d="M52.5942 66.8319C52.5942 67.7136 52.3332 68.4155 51.8103 68.9395C51.2168 69.5624 50.4424 69.8738 49.4912 69.8738C48.58 69.8738 47.8045 69.5582 47.1679 68.9268C46.5302 68.2945 46.2114 67.5116 46.2114 66.5772C46.2114 65.6418 46.5302 64.859 47.1679 64.2276C47.8045 63.5952 48.58 63.2796 49.4912 63.2796C49.9436 63.2796 50.3761 63.368 50.7865 63.5437C51.1979 63.7205 51.5272 63.9551 51.7734 64.2487L51.2189 64.8042C50.8012 64.3044 50.2256 64.0551 49.4901 64.0551C48.8251 64.0551 48.2506 64.2887 47.7655 64.7558C47.2815 65.223 47.0395 65.8291 47.0395 66.5762C47.0395 67.3233 47.2815 67.9293 47.7666 68.3976C48.2517 68.8648 48.8262 69.0983 49.4912 69.0983C50.1962 69.0983 50.7844 68.8637 51.2547 68.3934C51.5598 68.0872 51.7366 67.661 51.784 67.1149H49.4912V66.3552H52.55C52.5805 66.5204 52.5942 66.6793 52.5942 66.8319Z" fill="white"/>
<path d="M57.4449 64.195H54.5702V66.1963H57.1629V66.955H54.5702V68.9563H57.4449V69.7328H53.759V63.4195H57.4449V64.195Z" fill="white"/>
<path d="M60.0533 69.7328H60.8646V64.195H62.6281V63.4195H58.2898V64.195H60.0533V69.7328Z" fill="white"/>
<path d="M65.7679 69.7328V63.4195H66.5792V69.7328H65.7679Z" fill="white"/>
<path d="M69.3644 69.7328H70.1757V64.195H71.9392V63.4195H67.6009V64.195H69.3644V69.7328Z" fill="white"/>
<path d="M82.2215 63.4195V69.7328H83.0306V65.7996L82.9959 64.5833H83.0306L86.2409 69.7328H87.088V63.4195H86.2767V67.1149L86.3114 68.3313H86.2767L83.2084 63.4195H82.2215Z" fill="white"/>
<path fill-rule="evenodd" clip-rule="evenodd" d="M80.1528 68.9163C79.532 69.555 78.7607 69.8728 77.8379 69.8728C76.9151 69.8728 76.1439 69.554 75.5241 68.9163C74.9033 68.2787 74.5939 67.4979 74.5939 66.5751C74.5939 65.6523 74.9033 64.8716 75.5241 64.2339C76.1439 63.5953 76.9151 63.2764 77.8379 63.2764C78.7555 63.2764 79.5257 63.5974 80.1486 64.2382C80.7715 64.879 81.083 65.6576 81.083 66.5751C81.083 67.499 80.7726 68.2797 80.1528 68.9163ZM76.1228 68.3881C76.59 68.8616 77.1614 69.0973 77.8379 69.0973C78.5145 69.0973 79.0859 68.8605 79.553 68.3881C80.0202 67.9146 80.2549 67.3106 80.2549 66.5762C80.2549 65.8417 80.0202 65.2367 79.553 64.7643C79.0869 64.2908 78.5145 64.0551 77.8379 64.0551C77.1614 64.0551 76.59 64.2918 76.1228 64.7643C75.6567 65.2378 75.422 65.8417 75.422 66.5762C75.422 67.3106 75.6567 67.9146 76.1228 68.3881Z" stroke="white" stroke-width="0.2" stroke-miterlimit="10"/>
<path d="M52.5942 66.8319C52.5942 67.7136 52.3332 68.4155 51.8103 68.9395C51.2168 69.5624 50.4424 69.8738 49.4912 69.8738C48.58 69.8738 47.8045 69.5582 47.1679 68.9268C46.5302 68.2945 46.2114 67.5116 46.2114 66.5772C46.2114 65.6418 46.5302 64.859 47.1679 64.2276C47.8045 63.5952 48.58 63.2796 49.4912 63.2796C49.9436 63.2796 50.3761 63.368 50.7865 63.5437C51.1979 63.7205 51.5272 63.9551 51.7734 64.2487L51.2189 64.8042C50.8012 64.3044 50.2256 64.0551 49.4901 64.0551C48.8251 64.0551 48.2506 64.2887 47.7655 64.7558C47.2815 65.223 47.0395 65.8291 47.0395 66.5762C47.0395 67.3233 47.2815 67.9293 47.7666 68.3976C48.2517 68.8648 48.8262 69.0983 49.4912 69.0983C50.1962 69.0983 50.7844 68.8637 51.2547 68.3934C51.5598 68.0872 51.7366 67.661 51.784 67.1149H49.4912V66.3552H52.55C52.5805 66.5204 52.5942 66.6793 52.5942 66.8319Z" stroke="white" stroke-width="0.2" stroke-miterlimit="10"/>
<path d="M57.4449 64.195H54.5702V66.1963H57.1629V66.955H54.5702V68.9563H57.4449V69.7328H53.759V63.4195H57.4449V64.195Z" stroke="white" stroke-width="0.2" stroke-miterlimit="10"/>
<path d="M60.0533 69.7328H60.8646V64.195H62.6281V63.4195H58.2898V64.195H60.0533V69.7328Z" stroke="white" stroke-width="0.2" stroke-miterlimit="10"/>
<path d="M65.7679 69.7328V63.4195H66.5792V69.7328H65.7679Z" stroke="white" stroke-width="0.2" stroke-miterlimit="10"/>
<path d="M69.3644 69.7328H70.1757V64.195H71.9392V63.4195H67.6009V64.195H69.3644V69.7328Z" stroke="white" stroke-width="0.2" stroke-miterlimit="10"/>
<path d="M82.2215 63.4195V69.7328H83.0306V65.7996L82.9959 64.5833H83.0306L86.2409 69.7328H87.088V63.4195H86.2767V67.1149L86.3114 68.3313H86.2767L83.2084 63.4195H82.2215Z" stroke="white" stroke-width="0.2" stroke-miterlimit="10"/>
<path d="M13.68 63.9853C13.3739 64.3094 13.1929 64.8124 13.1929 65.4637V88.7345C13.1929 89.3869 13.3739 89.8888 13.68 90.2129L13.7579 90.2887L26.7938 77.2527V77.0991V76.9455L13.7579 63.9085L13.68 63.9853Z" fill="url(#paint0_linear_1_77)"/>
<path d="M31.1395 81.6004L26.7949 77.2537V77.1001V76.9465L31.1405 72.6008L31.2384 72.6566L36.3869 75.5818C37.8579 76.4172 37.8579 77.7841 36.3869 78.6206L31.2384 81.5457L31.1395 81.6004Z" fill="url(#paint1_linear_1_77)"/>
<path d="M31.2384 81.5437L26.7949 77.0991L13.6801 90.2129C14.1651 90.7264 14.9648 90.7895 15.8666 90.2771L31.2384 81.5437Z" fill="url(#paint2_linear_1_77)"/>
<path d="M31.2384 72.6545L15.8676 63.9211C14.9659 63.4087 14.1662 63.4729 13.6811 63.9853L26.7949 77.0991L31.2384 72.6545Z" fill="url(#paint3_linear_1_77)"/>
<path opacity="0.2" d="M31.1406 81.4458L15.8676 90.1234C15.0132 90.6085 14.2493 90.5769 13.759 90.135L13.6801 90.2139L13.7579 90.2897C14.2483 90.7316 15.0122 90.7642 15.8666 90.2781L31.2374 81.5447L31.1406 81.4458Z" fill="black"/>
<path opacity="0.12" d="M13.68 90.0593C13.3739 89.7352 13.1929 89.2323 13.1929 88.5809V88.7346C13.1929 89.3859 13.3739 89.8888 13.68 90.2129L13.759 90.134L13.68 90.0593Z" fill="black"/>
<path opacity="0.12" d="M36.3869 78.4649L31.1406 81.4459L31.2384 81.5437L36.3869 78.6186C37.1224 78.2008 37.4896 77.6505 37.4896 77.1002C37.4276 77.5979 37.053 78.0861 36.3869 78.4649Z" fill="black"/>
<path opacity="0.25" d="M15.8666 64.0748L36.3859 75.7333C37.053 76.1121 37.4265 76.6004 37.4886 77.0991C37.4886 76.5488 37.1214 75.9974 36.3859 75.5797L15.8666 63.9211C14.3956 63.0857 13.1929 63.7791 13.1929 65.4637V65.6184C13.1929 63.9338 14.3966 63.2393 15.8666 64.0748Z" fill="white"/>
</g>
<defs>
<filter id="filter0_d_1_77" x="0" y="54.5283" width="148" height="53.4153" filterUnits="userSpaceOnUse" color-interpolation-filters="sRGB">
<feFlood flood-opacity="0" result="BackgroundImageFix"/>
<feColorMatrix in="SourceAlpha" type="matrix" values="0 0 0 0 0 0 0 0 0 0 0 0 0 0 0 0 0 0 127 0" result="hardAlpha"/>
<feOffset dy="4"/>
<feGaussianBlur stdDeviation="2"/>
<feComposite in2="hardAlpha" operator="out"/>
<feColorMatrix type="matrix" values="0 0 0 0 0 0 0 0 0 0 0 0 0 0 0 0 0 0 0.25 0"/>
<feBlend mode="normal" in2="BackgroundImageFix" result="effect1_dropShadow_1_77"/>
<feBlend mode="normal" in="SourceGraphic" in2="effect1_dropShadow_1_77" result="shape"/>
</filter>
<linearGradient id="paint0_linear_1_77" x1="25.6381" y1="65.2183" x2="7.97935" y2="82.877" gradientUnits="userSpaceOnUse">
<stop stop-color="#00A0FF"/>
<stop offset="0.0066" stop-color="#00A1FF"/>
<stop offset="0.2601" stop-color="#00BEFF"/>
<stop offset="0.5122" stop-color="#00D2FF"/>
<stop offset="0.7604" stop-color="#00DFFF"/>
<stop offset="1" stop-color="#00E3FF"/>
</linearGradient>
<linearGradient id="paint1_linear_1_77" x1="38.3012" y1="77.0996" x2="12.8408" y2="77.0996" gradientUnits="userSpaceOnUse">
<stop stop-color="#FFE000"/>
<stop offset="0.4087" stop-color="#FFBD00"/>
<stop offset="0.7754" stop-color="#FFA500"/>
<stop offset="1" stop-color="#FF9C00"/>
</linearGradient>
<linearGradient id="paint2_linear_1_77" x1="28.8235" y1="79.5142" x2="4.87678" y2="103.461" gradientUnits="userSpaceOnUse">
<stop stop-color="#FF3A44"/>
<stop offset="1" stop-color="#C31162"/>
</linearGradient>
<linearGradient id="paint3_linear_1_77" x1="10.3784" y1="56.2392" x2="21.0717" y2="66.9324" gradientUnits="userSpaceOnUse">
<stop stop-color="#32A071"/>
<stop offset="0.0685" stop-color="#2DA771"/>
<stop offset="0.4762" stop-color="#15CF74"/>
<stop offset="0.8009" stop-color="#06E775"/>
<stop offset="1" stop-color="#00F076"/>
</linearGradient>
</defs>
</svg>
