<svg width="148" height="54" viewBox="0 0 148 54" fill="none" xmlns="http://www.w3.org/2000/svg">
<g filter="url(#filter0_d_1_106)">
<path d="M12.9898 45.9412C12.628 45.9412 12.275 45.9366 11.9161 45.9285C11.1726 45.9188 10.4309 45.8541 9.69696 45.7349C9.01261 45.617 8.34966 45.3978 7.72997 45.0844C7.11597 44.7736 6.55595 44.366 6.07136 43.8774C5.57976 43.3945 5.17049 42.8344 4.85975 42.2194C4.54558 41.6003 4.32816 40.9368 4.21506 40.2518C4.09292 39.5159 4.02684 38.7717 4.01738 38.0257C4.00985 37.7753 4 36.9416 4 36.9416V9.51513C4 9.51513 4.0105 8.69425 4.01744 8.45308C4.02649 7.70828 4.09219 6.96526 4.21397 6.23043C4.32728 5.54362 4.54487 4.87816 4.8592 4.25708C5.1688 3.64245 5.5758 3.08196 6.06444 2.59734C6.55253 2.10812 7.11434 1.69849 7.72939 1.3834C8.34765 1.07101 9.00935 0.853313 9.69232 0.7376C10.4287 0.617171 11.173 0.552061 11.919 0.542817L12.9903 0.52832H135.004L136.088 0.543399C136.827 0.552183 137.565 0.616712 138.294 0.736436C138.984 0.853601 139.653 1.07282 140.278 1.38688C141.51 2.02188 142.513 3.02652 143.145 4.25998C143.455 4.87677 143.669 5.53681 143.781 6.21768C143.904 6.95854 143.973 7.7074 143.987 8.4583C143.991 8.79453 143.991 9.1557 143.991 9.51513C144 9.96036 144 10.3841 144 10.8114V35.6593C144 36.0906 144 36.5115 143.991 36.9358C143.991 37.3219 143.991 37.6756 143.986 38.0396C143.972 38.7771 143.904 39.5126 143.783 40.2402C143.672 40.9301 143.456 41.5988 143.142 42.2229C142.829 42.8313 142.422 43.3865 141.936 43.8681C141.451 44.3594 140.89 44.7693 140.275 45.0821C139.651 45.3979 138.984 45.618 138.294 45.7349C137.56 45.8547 136.819 45.9195 136.075 45.9285C135.727 45.9366 135.363 45.9412 135.01 45.9412L133.723 45.9436L12.9898 45.9412Z" fill="black"/>
<path d="M74.3939 24.9419C71.9191 24.9419 69.902 26.8233 69.902 29.417C69.902 31.9939 71.9191 33.8921 74.3939 33.8921C76.8687 33.8921 78.8858 31.9939 78.8858 29.417C78.8858 26.8233 76.8687 24.9419 74.3939 24.9419ZM74.3939 32.1296C73.0376 32.1296 71.8675 31.0111 71.8675 29.417C71.8675 27.806 73.0376 26.7044 74.3939 26.7044C75.7502 26.7044 76.9192 27.806 76.9192 29.417C76.9192 31.01 75.7502 32.1296 74.3939 32.1296ZM64.5936 24.9419C62.1187 24.9419 60.1016 26.8233 60.1016 29.417C60.1016 31.9939 62.1187 33.8921 64.5936 33.8921C67.0684 33.8921 69.0855 31.9939 69.0855 29.417C69.0865 26.8233 67.0684 24.9419 64.5936 24.9419ZM64.5936 32.1296C63.2373 32.1296 62.0682 31.0111 62.0682 29.417C62.0682 27.806 63.2383 26.7044 64.5936 26.7044C65.9499 26.7044 67.1189 27.806 67.1189 29.417C67.1199 31.01 65.9499 32.1296 64.5936 32.1296ZM52.9371 26.315V28.2132H57.4806C57.3448 29.2812 56.9892 30.0609 56.4462 30.6039C55.7854 31.2647 54.7511 31.9939 52.9371 31.9939C50.1403 31.9939 47.9538 29.739 47.9538 26.9422C47.9538 24.1454 50.1403 21.8905 52.9371 21.8905C54.446 21.8905 55.5476 22.4839 56.361 23.2468L57.7005 21.9073C56.5651 20.8225 55.0563 19.9912 52.9371 19.9912C49.106 19.9912 45.8851 23.11 45.8851 26.9411C45.8851 30.7722 49.106 33.891 52.9371 33.891C55.0047 33.891 56.5651 33.2134 57.7857 31.9412C59.04 30.687 59.4303 28.9235 59.4303 27.4998C59.4303 27.059 59.3967 26.6517 59.3283 26.3129H52.9371V26.315ZM100.611 27.7892C100.238 26.7885 99.1021 24.9408 96.7799 24.9408C94.4744 24.9408 92.5594 26.7549 92.5594 29.4159C92.5594 31.9244 94.4576 33.891 97.0008 33.891C99.0516 33.891 100.238 32.6368 100.73 31.9076L99.2042 30.8901C98.6959 31.6361 98.0004 32.1275 97.0008 32.1275C96.0002 32.1275 95.2889 31.6698 94.8311 30.7712L100.815 28.2964L100.611 27.7892ZM94.5081 29.2812C94.4576 27.5524 95.8476 26.6707 96.8472 26.6707C97.6269 26.6707 98.2877 27.06 98.5086 27.6198L94.5081 29.2812ZM89.6427 33.6206H91.6092V20.4668H89.6427V33.6206ZM86.4218 25.9415H86.3545C85.9136 25.4164 85.0666 24.9408 83.9986 24.9408C81.7605 24.9408 79.7097 26.9074 79.7097 29.4328C79.7097 31.9412 81.7605 33.891 83.9986 33.891C85.0666 33.891 85.9136 33.4165 86.3545 32.8735H86.4218V33.5175C86.4218 35.2294 85.5064 36.1449 84.0312 36.1449C82.8274 36.1449 82.0814 35.2799 81.7763 34.5518L80.0643 35.2641C80.5557 36.451 81.8615 37.9084 84.0312 37.9084C86.3366 37.9084 88.2863 36.5521 88.2863 33.247V25.2123H86.4218V25.9415ZM84.168 32.1296C82.8117 32.1296 81.6763 30.9942 81.6763 29.4338C81.6763 27.8576 82.8117 26.7044 84.168 26.7044C85.5074 26.7044 86.5575 27.8565 86.5575 29.4338C86.5575 30.9932 85.5074 32.1296 84.168 32.1296ZM109.822 20.4668H105.118V33.6206H107.08V28.6373H109.821C111.997 28.6373 114.136 27.0621 114.136 24.5526C114.136 22.043 111.998 20.4668 109.822 20.4668ZM109.873 26.8064H107.08V22.2977H109.873C111.34 22.2977 112.174 23.513 112.174 24.5526C112.174 25.5711 111.34 26.8064 109.873 26.8064ZM122.007 24.9177C120.585 24.9177 119.113 25.5438 118.504 26.9316L120.247 27.6598C120.62 26.9316 121.313 26.6949 122.041 26.6949C123.057 26.6949 124.089 27.3041 124.106 28.3869V28.5226C123.75 28.3195 122.988 28.0144 122.058 28.0144C120.18 28.0144 118.267 29.0466 118.267 30.9764C118.267 32.7367 119.808 33.87 121.533 33.87C122.854 33.87 123.581 33.2776 124.038 32.5841H124.105V33.5995H126V28.5563C126 26.2203 124.257 24.9177 122.007 24.9177ZM121.769 32.1264C121.126 32.1264 120.229 31.8045 120.229 31.01C120.229 29.9946 121.346 29.6053 122.31 29.6053C123.173 29.6053 123.579 29.7916 124.104 30.0451C123.952 31.2636 122.903 32.1264 121.769 32.1264ZM132.905 25.2049L130.654 30.908H130.587L128.252 25.2049H126.137L129.64 33.1755L127.642 37.6095H129.69L135.089 25.2049H132.905ZM115.22 33.6206H117.183V20.4668H115.22V33.6206Z" fill="white"/>
<path fill-rule="evenodd" clip-rule="evenodd" d="M80.1528 14.9163C79.532 15.555 78.7607 15.8728 77.8379 15.8728C76.9151 15.8728 76.1439 15.554 75.5241 14.9163C74.9033 14.2787 74.5939 13.4979 74.5939 12.5751C74.5939 11.6523 74.9033 10.8716 75.5241 10.2339C76.1439 9.59525 76.9151 9.27643 77.8379 9.27643C78.7555 9.27643 79.5257 9.59735 80.1486 10.2382C80.7715 10.879 81.083 11.6576 81.083 12.5751C81.083 13.499 80.7726 14.2797 80.1528 14.9163ZM76.1228 14.3881C76.59 14.8616 77.1614 15.0973 77.8379 15.0973C78.5145 15.0973 79.0859 14.8605 79.553 14.3881C80.0202 13.9146 80.2549 13.3106 80.2549 12.5762C80.2549 11.8417 80.0202 11.2367 79.553 10.7643C79.0869 10.2908 78.5145 10.0551 77.8379 10.0551C77.1614 10.0551 76.59 10.2918 76.1228 10.7643C75.6567 11.2378 75.422 11.8417 75.422 12.5762C75.422 13.3106 75.6567 13.9146 76.1228 14.3881Z" fill="white"/>
<path d="M52.5942 12.8319C52.5942 13.7136 52.3332 14.4155 51.8103 14.9395C51.2168 15.5624 50.4424 15.8738 49.4912 15.8738C48.58 15.8738 47.8045 15.5582 47.1679 14.9268C46.5302 14.2945 46.2114 13.5116 46.2114 12.5772C46.2114 11.6418 46.5302 10.859 47.1679 10.2276C47.8045 9.59525 48.58 9.27958 49.4912 9.27958C49.9436 9.27958 50.3761 9.36797 50.7865 9.54369C51.1979 9.72046 51.5272 9.95511 51.7734 10.2487L51.2189 10.8042C50.8012 10.3044 50.2256 10.0551 49.4901 10.0551C48.8251 10.0551 48.2506 10.2887 47.7655 10.7558C47.2815 11.223 47.0395 11.8291 47.0395 12.5762C47.0395 13.3233 47.2815 13.9293 47.7666 14.3976C48.2517 14.8648 48.8262 15.0983 49.4912 15.0983C50.1962 15.0983 50.7844 14.8637 51.2547 14.3934C51.5598 14.0872 51.7366 13.661 51.784 13.1149H49.4912V12.3552H52.55C52.5805 12.5204 52.5942 12.6793 52.5942 12.8319Z" fill="white"/>
<path d="M57.4449 10.195H54.5702V12.1963H57.1629V12.955H54.5702V14.9563H57.4449V15.7328H53.759V9.41953H57.4449V10.195Z" fill="white"/>
<path d="M60.0533 15.7328H60.8646V10.195H62.6281V9.41953H58.2898V10.195H60.0533V15.7328Z" fill="white"/>
<path d="M65.7679 15.7328V9.41953H66.5792V15.7328H65.7679Z" fill="white"/>
<path d="M69.3644 15.7328H70.1757V10.195H71.9392V9.41953H67.6009V10.195H69.3644V15.7328Z" fill="white"/>
<path d="M82.2215 9.41953V15.7328H83.0306V11.7996L82.9959 10.5833H83.0306L86.2409 15.7328H87.088V9.41953H86.2767V13.1149L86.3114 14.3313H86.2767L83.2084 9.41953H82.2215Z" fill="white"/>
<path fill-rule="evenodd" clip-rule="evenodd" d="M80.1528 14.9163C79.532 15.555 78.7607 15.8728 77.8379 15.8728C76.9151 15.8728 76.1439 15.554 75.5241 14.9163C74.9033 14.2787 74.5939 13.4979 74.5939 12.5751C74.5939 11.6523 74.9033 10.8716 75.5241 10.2339C76.1439 9.59525 76.9151 9.27643 77.8379 9.27643C78.7555 9.27643 79.5257 9.59735 80.1486 10.2382C80.7715 10.879 81.083 11.6576 81.083 12.5751C81.083 13.499 80.7726 14.2797 80.1528 14.9163ZM76.1228 14.3881C76.59 14.8616 77.1614 15.0973 77.8379 15.0973C78.5145 15.0973 79.0859 14.8605 79.553 14.3881C80.0202 13.9146 80.2549 13.3106 80.2549 12.5762C80.2549 11.8417 80.0202 11.2367 79.553 10.7643C79.0869 10.2908 78.5145 10.0551 77.8379 10.0551C77.1614 10.0551 76.59 10.2918 76.1228 10.7643C75.6567 11.2378 75.422 11.8417 75.422 12.5762C75.422 13.3106 75.6567 13.9146 76.1228 14.3881Z" stroke="white" stroke-width="0.2" stroke-miterlimit="10"/>
<path d="M52.5942 12.8319C52.5942 13.7136 52.3332 14.4155 51.8103 14.9395C51.2168 15.5624 50.4424 15.8738 49.4912 15.8738C48.58 15.8738 47.8045 15.5582 47.1679 14.9268C46.5302 14.2945 46.2114 13.5116 46.2114 12.5772C46.2114 11.6418 46.5302 10.859 47.1679 10.2276C47.8045 9.59525 48.58 9.27958 49.4912 9.27958C49.9436 9.27958 50.3761 9.36797 50.7865 9.54369C51.1979 9.72046 51.5272 9.95511 51.7734 10.2487L51.2189 10.8042C50.8012 10.3044 50.2256 10.0551 49.4901 10.0551C48.8251 10.0551 48.2506 10.2887 47.7655 10.7558C47.2815 11.223 47.0395 11.8291 47.0395 12.5762C47.0395 13.3233 47.2815 13.9293 47.7666 14.3976C48.2517 14.8648 48.8262 15.0983 49.4912 15.0983C50.1962 15.0983 50.7844 14.8637 51.2547 14.3934C51.5598 14.0872 51.7366 13.661 51.784 13.1149H49.4912V12.3552H52.55C52.5805 12.5204 52.5942 12.6793 52.5942 12.8319Z" stroke="white" stroke-width="0.2" stroke-miterlimit="10"/>
<path d="M57.4449 10.195H54.5702V12.1963H57.1629V12.955H54.5702V14.9563H57.4449V15.7328H53.759V9.41953H57.4449V10.195Z" stroke="white" stroke-width="0.2" stroke-miterlimit="10"/>
<path d="M60.0533 15.7328H60.8646V10.195H62.6281V9.41953H58.2898V10.195H60.0533V15.7328Z" stroke="white" stroke-width="0.2" stroke-miterlimit="10"/>
<path d="M65.7679 15.7328V9.41953H66.5792V15.7328H65.7679Z" stroke="white" stroke-width="0.2" stroke-miterlimit="10"/>
<path d="M69.3644 15.7328H70.1757V10.195H71.9392V9.41953H67.6009V10.195H69.3644V15.7328Z" stroke="white" stroke-width="0.2" stroke-miterlimit="10"/>
<path d="M82.2215 9.41953V15.7328H83.0306V11.7996L82.9959 10.5833H83.0306L86.2409 15.7328H87.088V9.41953H86.2767V13.1149L86.3114 14.3313H86.2767L83.2084 9.41953H82.2215Z" stroke="white" stroke-width="0.2" stroke-miterlimit="10"/>
<path d="M13.68 9.98532C13.3739 10.3094 13.1929 10.8124 13.1929 11.4637V34.7345C13.1929 35.3869 13.3739 35.8888 13.68 36.2129L13.7579 36.2887L26.7938 23.2527V23.0991V22.9455L13.7579 9.90851L13.68 9.98532Z" fill="url(#paint0_linear_1_106)"/>
<path d="M31.1395 27.6004L26.7949 23.2537V23.1001V22.9465L31.1405 18.6008L31.2384 18.6566L36.3869 21.5818C37.8579 22.4172 37.8579 23.7841 36.3869 24.6206L31.2384 27.5457L31.1395 27.6004Z" fill="url(#paint1_linear_1_106)"/>
<path d="M31.2384 27.5437L26.7949 23.0991L13.6801 36.2129C14.1651 36.7264 14.9648 36.7895 15.8666 36.2771L31.2384 27.5437Z" fill="url(#paint2_linear_1_106)"/>
<path d="M31.2384 18.6545L15.8676 9.92112C14.9659 9.40869 14.1662 9.47287 13.6811 9.9853L26.7949 23.0991L31.2384 18.6545Z" fill="url(#paint3_linear_1_106)"/>
<path opacity="0.2" d="M31.1406 27.4458L15.8676 36.1234C15.0132 36.6085 14.2493 36.5769 13.759 36.135L13.6801 36.2139L13.7579 36.2897C14.2483 36.7316 15.0122 36.7642 15.8666 36.2781L31.2374 27.5447L31.1406 27.4458Z" fill="black"/>
<path opacity="0.12" d="M13.68 36.0593C13.3739 35.7352 13.1929 35.2323 13.1929 34.5809V34.7346C13.1929 35.3859 13.3739 35.8888 13.68 36.2129L13.759 36.134L13.68 36.0593Z" fill="black"/>
<path opacity="0.12" d="M36.3869 24.4649L31.1406 27.4459L31.2384 27.5437L36.3869 24.6186C37.1224 24.2008 37.4896 23.6505 37.4896 23.1002C37.4276 23.5979 37.053 24.0861 36.3869 24.4649Z" fill="black"/>
<path opacity="0.25" d="M15.8666 10.0748L36.3859 21.7333C37.053 22.1121 37.4265 22.6004 37.4886 23.0991C37.4886 22.5488 37.1214 21.9974 36.3859 21.5797L15.8666 9.92114C14.3956 9.08568 13.1929 9.77909 13.1929 11.4637V11.6184C13.1929 9.93377 14.3966 9.23931 15.8666 10.0748Z" fill="white"/>
</g>
<defs>
<filter id="filter0_d_1_106" x="0" y="0.52832" width="148" height="53.4153" filterUnits="userSpaceOnUse" color-interpolation-filters="sRGB">
<feFlood flood-opacity="0" result="BackgroundImageFix"/>
<feColorMatrix in="SourceAlpha" type="matrix" values="0 0 0 0 0 0 0 0 0 0 0 0 0 0 0 0 0 0 127 0" result="hardAlpha"/>
<feOffset dy="4"/>
<feGaussianBlur stdDeviation="2"/>
<feComposite in2="hardAlpha" operator="out"/>
<feColorMatrix type="matrix" values="0 0 0 0 0 0 0 0 0 0 0 0 0 0 0 0 0 0 0.25 0"/>
<feBlend mode="normal" in2="BackgroundImageFix" result="effect1_dropShadow_1_106"/>
<feBlend mode="normal" in="SourceGraphic" in2="effect1_dropShadow_1_106" result="shape"/>
</filter>
<linearGradient id="paint0_linear_1_106" x1="25.6381" y1="11.2183" x2="7.97935" y2="28.877" gradientUnits="userSpaceOnUse">
<stop stop-color="#00A0FF"/>
<stop offset="0.0066" stop-color="#00A1FF"/>
<stop offset="0.2601" stop-color="#00BEFF"/>
<stop offset="0.5122" stop-color="#00D2FF"/>
<stop offset="0.7604" stop-color="#00DFFF"/>
<stop offset="1" stop-color="#00E3FF"/>
</linearGradient>
<linearGradient id="paint1_linear_1_106" x1="38.3012" y1="23.0996" x2="12.8408" y2="23.0996" gradientUnits="userSpaceOnUse">
<stop stop-color="#FFE000"/>
<stop offset="0.4087" stop-color="#FFBD00"/>
<stop offset="0.7754" stop-color="#FFA500"/>
<stop offset="1" stop-color="#FF9C00"/>
</linearGradient>
<linearGradient id="paint2_linear_1_106" x1="28.8235" y1="25.5142" x2="4.87678" y2="49.4609" gradientUnits="userSpaceOnUse">
<stop stop-color="#FF3A44"/>
<stop offset="1" stop-color="#C31162"/>
</linearGradient>
<linearGradient id="paint3_linear_1_106" x1="10.3784" y1="2.23919" x2="21.0717" y2="12.9324" gradientUnits="userSpaceOnUse">
<stop stop-color="#32A071"/>
<stop offset="0.0685" stop-color="#2DA771"/>
<stop offset="0.4762" stop-color="#15CF74"/>
<stop offset="0.8009" stop-color="#06E775"/>
<stop offset="1" stop-color="#00F076"/>
</linearGradient>
</defs>
</svg>
