<svg width="370" height="42" viewBox="0 0 370 42" fill="none" xmlns="http://www.w3.org/2000/svg">
<path fill-rule="evenodd" clip-rule="evenodd" d="M32.1609 30.794L32.2556 30.7943C35.5755 30.7943 38.2766 33.3511 38.2766 36.4946V38.4084C38.2766 39.6701 37.2245 40.6978 35.9323 40.6978H24.6531C24.6095 40.7014 24.5676 40.7014 24.5239 40.7014C23.8195 40.7014 23.0951 40.4941 22.6256 40.0422C22.6219 40.0369 22.6165 40.0369 22.6128 40.0316L0.534907 15.5586L1.13738 14.8711L2.93565 13.0424C3.6108 12.0022 5.81146 9.67735 12.1306 3.17954C12.7112 2.58237 13.5339 2.31126 14.3256 2.46897C15.1301 2.62311 15.7926 3.1618 16.1439 3.94681C17.3269 6.60101 20.1608 11.1534 25.8197 11.8037C27.1174 11.9543 28.0967 13.0919 28.0967 14.4511L28.0949 26.6175C28.0949 27.0551 28.1567 27.468 28.2769 27.8454C28.7282 29.2613 29.7821 30.8968 32.1609 30.794ZM14.0237 4.24398C13.7635 4.19259 13.5032 4.27765 13.3119 4.47463C8.17379 9.75858 5.56739 12.5495 4.65371 13.6162L25.0244 36.1966H36.5472C36.3743 34.1854 34.5269 32.5942 32.25 32.5942C32.1408 32.5995 32.0298 32.603 31.9224 32.6048C31.8751 32.6048 31.8332 32.5959 31.7859 32.5942H31.5547V32.5764C29.2434 32.4311 27.4816 30.9621 26.6716 28.4211C26.4914 27.8558 26.4004 27.2498 26.4004 26.6154V24.489H24.6549C24.1854 24.489 23.8068 24.0868 23.8068 23.5888C23.8068 23.0909 24.1854 22.6886 24.6549 22.6886H26.4004V20.8883H23.379C22.9095 20.8883 22.5309 20.486 22.5309 19.9881C22.5309 19.4901 22.9095 19.0879 23.379 19.0879H26.4004V14.4522C26.4004 14.0128 26.0728 13.6442 25.6378 13.5946C19.1582 12.8506 15.9458 7.71535 14.6098 4.72065C14.4969 4.46725 14.2822 4.2936 14.0237 4.24398ZM35.9324 38.8973L35.9327 38.8974C36.2785 38.8974 36.5806 38.6706 36.5806 38.4083V37.9972L24.6515 37.999C24.6515 37.999 24.6496 37.9972 24.6478 37.9972C24.6114 37.9955 24.575 37.9795 24.5386 37.9742C24.3384 37.9458 24.1619 37.8537 24.0308 37.7013L3.50918 14.954L2.89762 15.5759L23.8377 38.7892C23.8432 38.7927 23.845 38.7998 23.8486 38.8051C23.9742 38.837 24.3455 38.915 24.6294 38.8973H35.9324ZM19.1145 18.5224L19.1145 18.5226C12.8346 17.7854 10.3599 11.1855 10.257 10.907C10.1092 10.4994 10.3004 10.0436 10.6861 9.88645C11.0734 9.72932 11.5057 9.93157 11.6551 10.3376C11.6773 10.3966 13.9161 16.3225 19.2784 16.9511C19.6898 16.9993 19.9855 17.3898 19.9405 17.8239C19.8987 18.2284 19.5741 18.5271 19.1981 18.5271C19.1692 18.5271 19.1418 18.5255 19.1145 18.5224ZM8.52536 28.9924H1.73433C1.26447 28.9924 0.885666 28.5947 0.885666 28.1023C0.885666 27.6099 1.26447 27.2121 1.73433 27.2121H8.52536C8.9934 27.2121 9.37403 27.6099 9.37403 28.1023C9.37403 28.5947 8.9934 28.9924 8.52536 28.9924ZM13.5763 33.5117C14.0443 33.5117 14.425 33.909 14.425 34.4027C14.425 34.8946 14.0462 35.292 13.5763 35.292H0.848659C0.378803 35.292 0 34.8946 0 34.4027C0 33.909 0.378803 33.5117 0.848659 33.5117H13.5763ZM7.24365 38.9211H13.5783C14.0452 38.9211 14.425 39.3184 14.425 39.8121C14.425 40.304 14.047 40.7014 13.5783 40.7014L7.24365 40.6996C6.77489 40.6996 6.39696 40.3023 6.39696 39.8103C6.39696 39.3184 6.77489 38.9211 7.24365 38.9211Z" fill="white"/>
<path fill-rule="evenodd" clip-rule="evenodd" d="M73.7233 26.8859V40.7013H65.8213V2.94434H81.6777C89.9722 2.94434 95.0744 7.52332 95.0744 14.9805C95.0744 19.8212 92.5625 24.0077 88.2191 25.7084L96.1734 40.7013H87.2248L80.1862 26.8859H73.7233ZM73.7233 9.11942V20.9986H80.6572C84.6344 20.9986 86.9631 18.8269 86.9631 15.0852C86.9631 11.422 84.5035 9.11942 80.5787 9.11942H73.7233ZM130.08 11.893V40.7013H122.701V36.07H122.231C120.87 39.4192 118.175 41.3031 113.805 41.3031C107.578 41.3031 103.705 37.3521 103.705 30.6537V11.893H111.319V28.7698C111.319 32.8516 113.125 34.9187 116.631 34.9187C120.425 34.9187 122.466 32.4853 122.466 28.5343V11.893H130.08ZM139.417 40.7013V11.893H146.796V16.5243H147.267C148.602 13.2798 151.532 11.265 155.797 11.265C162.208 11.265 165.662 15.1898 165.662 22.0714V40.7013H158.047V23.7983C158.047 19.7427 156.347 17.6232 152.736 17.6232C149.203 17.6232 147.032 20.1351 147.032 24.0338V40.7013H139.417Z" fill="white"/>
<path fill-rule="evenodd" clip-rule="evenodd" d="M210.813 12.5209L202.623 40.7013H200.242L192.418 15.216H192.235L184.438 40.7013H182.03L173.945 12.5209H175.986L183.182 38.2941H183.365L191.188 12.5209H193.491L201.315 38.2941H201.498L208.772 12.5209H210.813ZM220.098 6.1627C219.103 6.1627 218.318 5.37773 218.318 4.40961C218.318 3.44148 219.103 2.63034 220.098 2.63034C221.066 2.63034 221.851 3.44148 221.851 4.40961C221.851 5.37773 221.066 6.1627 220.098 6.1627ZM219.077 40.7013V12.5209H221.092V40.7013H219.077ZM233.962 5.19458H235.976V12.5209H242.832V14.3002H235.976V33.7936C235.976 37.4568 237.363 38.9482 240.817 38.9482C241.052 38.9482 242.596 38.9221 242.832 38.8959V40.6752C242.57 40.7275 240.922 40.7536 240.66 40.7536C235.872 40.7536 233.962 38.8697 233.962 34.1076V14.3002H229.304V12.5209H233.962V5.19458ZM252.483 40.7013V1.2959H254.498V18.4867H254.681C256.303 14.4572 259.966 12.1023 264.676 12.1023C270.799 12.1023 274.567 15.9225 274.567 22.2807V40.7013H272.552V22.8302C272.552 17.1261 269.569 13.9339 264.284 13.9339C258.527 13.9339 254.498 18.1466 254.498 23.903V40.7013H252.483Z" fill="white"/>
<path fill-rule="evenodd" clip-rule="evenodd" d="M318.723 40.7015H310.821V24.7928H293.814V40.7015H285.912V2.94453H293.814V18.2776H310.821V2.94453H318.723V40.7015ZM336.721 41.1463C331.174 41.1463 327.276 37.7448 327.276 32.4855C327.276 27.2785 331.279 24.2433 338.448 23.8247L345.435 23.406V21.025C345.435 18.5392 343.708 17.1001 340.568 17.1001C337.82 17.1001 335.989 18.0683 335.361 19.8737H328.348C328.846 14.5882 333.739 11.2652 340.986 11.2652C348.627 11.2652 352.944 14.876 352.944 21.025V40.7015H345.565V36.8813H345.094C343.603 39.5502 340.463 41.1463 336.721 41.1463ZM339.233 35.573C342.766 35.573 345.435 33.2443 345.435 30.2091V28.0635L339.6 28.456C336.329 28.6653 334.733 29.8951 334.733 32.0145C334.733 34.2386 336.591 35.573 339.233 35.573ZM362.386 40.7015V0.877441H370V40.7015H362.386Z" fill="white"/>
</svg>
